<?xml version="1.0" standalone="no"?>
<!DOCTYPE svg PUBLIC "-//W3C//DTD SVG 1.1//EN" "http://www.w3.org/Graphics/SVG/1.1/DTD/svg11.dtd" >
<svg xmlns="http://www.w3.org/2000/svg" xmlns:svg="http://www.w3.org/2000/svg" xmlns:xlink="http://www.w3.org/1999/xlink" viewBox="0 0 1024 1024"><path d="M387.13 432.29Q370.92 175.41 363.95 147.7L369.95 124.98Q398.5 107.08 380.43 99.28Q368.39 106.53 421.06 117.68Q435.49 110.24 511.98 131.84Q555.63 116.07 611.63 108.46Q627.75 109.76 636.31 125.71Q649.96 115.95 619.93 145.12Q624.1 138.94 647.1 175.18Q663.15 186.67 652.37 220.41Q652.6 276.14 649.37 410.88Q638.26 569.96 627.51 602.24Q645.09 678.37 635.18 669.12Q642.43 670.87 608.02 696.68Q588.6 680.53 539.06 713.82Q517.22 680.69 499.14 706.21Q433.66 710.21 423.67 712.43Q366.37 694.36 363.03 701.18Q382.52 666.15 360.58 513.85Q361.49 468.08 382.48 408.07ZM770.51 834.56Q788.72 812.77 813.28 818.16Q834.61 809.52 843.83 794.56Q848.23 821.89 848.61 834.15Q868.77 841.38 875.52 825.09Q867.98 807.96 862.08 733.65Q849.84 615.27 871.36 489.18Q856.98 365.43 862.89 282.37Q860.94 229.19 862.04 191.52Q881.37 145.33 892.8 150.11Q895.79 122.1 883.84 125.32Q916.53 120.86 899.18 114.55Q905.53 106.81 918.81 121.56L947.08 140.22L955.01 523.92Q961.76 685.06 943.39 770.21Q919.04 911.39 952.17 915.72Q942.89 904.34 909.84 924Q935.07 931.05 918.11 919.23Q876.83 914.45 828.56 892.39Q808.51 897.23 815.75 890.09Q795.39 881.19 788.98 852.97Q765.84 841.58 801.83 819.19ZM680.88 327.09Q670.1 275.33 676.99 206.59Q704.47 133.78 704.07 165.32Q703.44 131.85 700.28 153.97Q704.97 137.81 707.4 118.48Q729.36 114.15 739.58 113.45Q719.98 124.46 744.31 117.22Q728.47 135.92 764.98 139.42Q761.19 149.33 744.1 184.73Q746.16 237.35 784.29 331.24Q775.14 399.97 748.88 451.43Q787.7 492.6 777.22 482.98Q778.25 532.26 766.28 516.27Q764.17 547.68 745.49 554.56Q718.14 530.08 685.03 516.4Q683.04 512.25 702.25 503.98Q682.17 446.13 694.18 331.98ZM114.82 819.01Q134.17 814.63 199.14 768.04Q213.56 762.55 239.18 739.16Q252.91 772.88 234.48 747.32Q253.64 747.09 266.34 766.42Q274.97 766.33 279.94 774.03Q273.82 801.48 272.11 817.16Q273.52 808.5 247.95 821.35Q218.48 848.57 206.46 852.97Q189.45 867.49 154.68 898.53Q158.74 893.89 156.25 895.47Q129.66 907.41 112.92 922.63Q105.43 889.62 110.62 881.56Q84.8 897.66 65.27 868.76Q84.42 848.85 126.81 815.95ZM442.64 618.84H548.38L563.65 581.12Q555.16 581.24 579.31 559.62Q550.21 543.42 554.41 521.03Q555.66 538.36 567.81 535.49Q579.64 525.14 578.8 513.82Q560.41 507.14 565.25 519.31Q541.84 516.17 505.15 493.5Q493.79 519.24 490.09 519.16Q448.2 489.43 453.54 507.65Q431.09 524.3 460.55 528.97Q457.91 552.5 448.27 559.76ZM81 135.82Q100.74 110.63 93.25 94.71Q123.46 83.78 117.42 93.07Q120.71 82.71 143.72 89.1Q147.45 103.1 185.95 90.27Q188.53 121.55 199.43 102.4Q240.08 119.9 238.72 124.34Q285.32 135.74 316.1 171.83Q304.1 173.53 301.52 198.02Q292.86 192.56 295.81 190.89L285.53 216.36L199.68 181.16Q161.09 187.22 142.36 183.18Q107.33 177.48 93.94 175.18Q113.2 139.38 105.61 138.26Q120.42 126.91 107.99 139.47ZM509.52 257.84H584.58L571.75 217.3V179.58Q571.57 179.77 587.19 190.45Q552.26 179.85 568.61 168.52Q536.6 164.82 521.98 165.7Q520.83 192.19 513.37 189.88L439.34 176.29V296.91ZM91.71 348.57Q80.68 356.11 101.38 346.22Q93.64 333.98 98.78 305.89Q88.25 319.9 138.22 308.59Q112.61 315.11 127.79 331.95Q151.99 326.87 213.65 315.29Q258.13 342.95 244.13 355.94Q270.3 368.1 253.93 348Q261.78 363.89 248.31 386.31Q261.45 388.45 254.31 396.61Q233.1 406.59 199.2 404.78Q190.32 434.01 199.74 428.43Q149.77 395.25 155.96 387.17L74.77 397.64ZM383.73 819.86Q401.67 766.54 417.41 739.91Q433.86 728.08 409.87 738.92Q438.42 755.32 439.37 766.26Q469.92 756.22 462.44 771.05Q462.64 821.74 444.57 837.02Q410.68 889.71 407.9 914.64Q368.64 919.92 364.29 909.89Q374.1 905.43 348.26 912.32Q354.92 917.38 349.54 902.49Q343.93 894.81 359.21 840.41ZM528.4 729.29Q515.5 730.34 535.04 746.47Q544.73 715.91 560.47 748.71Q564.54 726.95 564.16 755.08Q603.69 760.98 615.94 803.07Q643.1 844.09 655.71 858.26Q623.69 883.94 654.25 893.34Q625.23 882.13 626.66 905.13Q611.14 884.46 608.38 893.25Q583.15 858.11 540.19 851.34Q519.58 807.42 504.21 794.97Q517.94 770.86 492.31 764.07Q527.29 754.25 517.93 738.42ZM430.46 364.13L436.69 410.63L493.01 412.68Q543.4 439.27 559.75 429.84Q563.65 411.11 566.3 421.87Q572.94 441.96 581.21 391.4Q567.56 410.75 553.41 365.08L557.78 351.02L514.17 355.71Q499.2 330.1 496.38 349.49Q461.12 348.54 449.54 336.23Z" fill="black"></path></svg>